<svg xmlns="http://www.w3.org/2000/svg" xmlns:xlink="http://www.w3.org/1999/xlink" width="40" zoomAndPan="magnify" viewBox="0 0 30 30.000001" height="40" preserveAspectRatio="xMidYMid meet" version="1.0"><defs><clipPath id="5c2d4aef18"><path d="M 0.484375 0 L 29.515625 0 L 29.515625 29.03125 L 0.484375 29.03125 Z M 0.484375 0 " clip-rule="nonzero"/></clipPath></defs><g clip-path="url(#5c2d4aef18)"><path fill="#2ecc71" d="M 19.746094 0.796875 L 19.746094 16.53125 C 19.746094 17.226562 19.621094 17.878906 19.371094 18.488281 C 19.117188 19.097656 18.761719 19.621094 18.320312 20.0625 C 17.878906 20.503906 17.351562 20.859375 16.742188 21.113281 C 16.132812 21.363281 15.503906 21.492188 14.8125 21.492188 C 14.117188 21.492188 13.464844 21.363281 12.878906 21.113281 C 12.269531 20.859375 11.742188 20.503906 11.300781 20.0625 C 10.863281 19.621094 10.503906 19.097656 10.230469 18.488281 C 10.230469 18.488281 10.230469 18.464844 10.210938 18.464844 L 11.976562 18.464844 C 12.101562 18.632812 12.226562 18.78125 12.375 18.925781 C 12.6875 19.242188 13.046875 19.472656 13.445312 19.640625 C 13.867188 19.808594 14.308594 19.894531 14.769531 19.894531 C 15.230469 19.894531 15.671875 19.808594 16.09375 19.640625 C 16.511719 19.472656 16.871094 19.222656 17.164062 18.925781 C 17.480469 18.613281 17.710938 18.253906 17.878906 17.855469 C 18.046875 17.457031 18.152344 17.015625 18.152344 16.53125 L 18.152344 0.355469 C 17.144531 0.125 16.09375 0 15 0 C 6.996094 0 0.484375 6.511719 0.484375 14.515625 C 0.484375 22.519531 6.996094 29.03125 15 29.03125 C 23.003906 29.03125 29.515625 22.519531 29.515625 14.515625 C 29.515625 8.171875 25.398438 2.773438 19.746094 0.796875 Z M 15 27.097656 C 8.066406 27.097656 2.417969 21.449219 2.417969 14.515625 C 2.417969 7.582031 8.046875 1.933594 15 1.933594 C 15.460938 1.933594 15.882812 1.953125 16.34375 1.996094 L 16.34375 16.53125 C 16.34375 16.953125 16.199219 17.332031 15.882812 17.625 C 15.566406 17.941406 15.210938 18.085938 14.746094 18.085938 C 14.328125 18.085938 13.949219 17.941406 13.65625 17.625 C 13.339844 17.308594 13.195312 16.953125 13.195312 16.53125 L 8.027344 16.53125 C 8.027344 17.4375 8.195312 18.339844 8.570312 19.160156 C 8.929688 19.976562 9.410156 20.691406 10.019531 21.300781 C 10.628906 21.910156 11.34375 22.394531 12.164062 22.75 C 12.984375 23.109375 13.867188 23.277344 14.789062 23.277344 C 15.714844 23.277344 16.574219 23.109375 17.394531 22.773438 C 18.214844 22.4375 18.90625 21.933594 19.539062 21.28125 C 20.859375 19.957031 21.511719 18.359375 21.511719 16.511719 L 21.511719 3.78125 C 25.1875 5.988281 27.5625 9.980469 27.5625 14.515625 C 27.5625 21.449219 21.933594 27.097656 15 27.097656 Z M 15 27.097656 " fill-opacity="1" fill-rule="nonzero"/></g></svg>